HIERARCHY
ROOT Reference
{
  OFFSET 0 0 0
  CHANNELS 6 Xposition Yposition Zposition Zrotation Xrotation Yrotation
  JOINT Hips
  {
    OFFSET 251.394 724.17 483.536
    CHANNELS 3 Zrotation Xrotation Yrotation
    JOINT RightUpLeg
    {
      OFFSET -0.450515 -23.4426 -1.37224
      CHANNELS 3 Zrotation Xrotation Yrotation
      JOINT RightLeg
      {
        OFFSET 112.821 0.0872427 -0.321027
        CHANNELS 3 Zrotation Xrotation Yrotation
        JOINT RightFoot
        {
          OFFSET 105.718 0.000193788 0.0213165
          CHANNELS 3 Zrotation Xrotation Yrotation
          JOINT RightToeBase
          {
            OFFSET 37.638 -0.000116272 0.00224792
            CHANNELS 3 Zrotation Xrotation Yrotation
            JOINT RightToeEnd
            {
              OFFSET 21.2112 0.114605 -0.000138184
              CHANNELS 3 Zrotation Xrotation Yrotation
              End Site
              {
                OFFSET 0 0 0
              }
            }
          }
        }
      }
    }
    JOINT LeftUpLeg
    {
      OFFSET -0.449508 23.4315 -1.37054
      CHANNELS 3 Zrotation Xrotation Yrotation
      JOINT LeftLeg
      {
        OFFSET 112.821 -0.0485242 -0.372458
        CHANNELS 3 Zrotation Xrotation Yrotation
        JOINT LeftFoot
        {
          OFFSET 105.716 0.00496094 -0.0229443
          CHANNELS 3 Zrotation Xrotation Yrotation
          JOINT LeftToeBase
          {
            OFFSET 37.639 0 0.00158905
            CHANNELS 3 Zrotation Xrotation Yrotation
            JOINT LeftToeEnd
            {
              OFFSET 21.2113 -0.125031 -0.00017438
              CHANNELS 3 Zrotation Xrotation Yrotation
              End Site
              {
                OFFSET 0 0 0
              }
            }
          }
        }
      }
    }
    JOINT Spine
    {
      OFFSET -5.01225 0.000463591 -9.60395
      CHANNELS 3 Zrotation Xrotation Yrotation
      JOINT Spine1
      {
        OFFSET 26.0222 -0.000271301 -0.000155029
        CHANNELS 3 Zrotation Xrotation Yrotation
        JOINT Spine2
        {
          OFFSET 27.173 -0.000155029 -0.000310058
          CHANNELS 3 Zrotation Xrotation Yrotation
          JOINT Spine3
          {
            OFFSET 36.3953 -0.000232544 7.75146e-005
            CHANNELS 3 Zrotation Xrotation Yrotation
            JOINT Neck
            {
              OFFSET 36.4331 0 -3.00261
              CHANNELS 3 Zrotation Xrotation Yrotation
              JOINT Head
              {
                OFFSET 23.0407 -0.000232544 -0.000310058
                CHANNELS 3 Zrotation Xrotation Yrotation
                End Site
                {
                  OFFSET 0 0 0
                }
              }
            }
            JOINT LeftShoulder
            {
              OFFSET 20.1317 6.74168 -12.6061
              CHANNELS 3 Zrotation Xrotation Yrotation
              JOINT LeftArm
              {
                OFFSET 34.2172 -5.81359e-005 7.75146e-005
                CHANNELS 3 Zrotation Xrotation Yrotation
                JOINT LeftForeArm
                {
                  OFFSET 65.4129 -0.0821605 0.0585235
                  CHANNELS 3 Zrotation Xrotation Yrotation
                  JOINT LeftHand
                  {
                    OFFSET 67.3883 0.0359667 0.0112396
                    CHANNELS 3 Zrotation Xrotation Yrotation
                    JOINT LeftHandThumb1
                    {
                      OFFSET 8.78386 2.85353 -6.05362
                      CHANNELS 3 Zrotation Xrotation Yrotation
                      JOINT LeftHandThumb2
                      {
                        OFFSET 8.25498 -0.000116272 -0.000174407
                        CHANNELS 3 Zrotation Xrotation Yrotation
                        JOINT LeftHandThumb3
                        {
                          OFFSET 7.24822 0.000310058 5.81358e-005
                          CHANNELS 3 Zrotation Xrotation Yrotation
                          JOINT LeftHandThumb4
                          {
                            OFFSET 7.0004 -3.87568e-005 -0.000310057
                            CHANNELS 3 Zrotation Xrotation Yrotation
                            End Site
                            {
                              OFFSET 0 0 0
                            }
                          }
                        }
                      }
                    }
                    JOINT LeftHandIndex1
                    {
                      OFFSET 24.0991 -1.01537 -5.40558
                      CHANNELS 3 Zrotation Xrotation Yrotation
                      JOINT LeftHandIndex2
                      {
                        OFFSET 7.26759 -0.000290679 -0.000465086
                        CHANNELS 3 Zrotation Xrotation Yrotation
                        JOINT LeftHandIndex3
                        {
                          OFFSET 7.13628 -1.93787e-005 0.000232543
                          CHANNELS 3 Zrotation Xrotation Yrotation
                          JOINT LeftHandIndex4
                          {
                            OFFSET 5.46699 9.68932e-005 -0.000387571
                            CHANNELS 3 Zrotation Xrotation Yrotation
                            End Site
                            {
                              OFFSET 0 0 0
                            }
                          }
                        }
                      }
                    }
                    JOINT LeftHandMiddle1
                    {
                      OFFSET 24.4604 -2.52837 0.918567
                      CHANNELS 3 Zrotation Xrotation Yrotation
                      JOINT LeftHandMiddle2
                      {
                        OFFSET 7.41627 -5.81359e-005 0.000116271
                        CHANNELS 3 Zrotation Xrotation Yrotation
                        JOINT LeftHandMiddle3
                        {
                          OFFSET 8.76829 3.87573e-005 -7.75142e-005
                          CHANNELS 3 Zrotation Xrotation Yrotation
                          JOINT LeftHandMiddle4
                          {
                            OFFSET 6.07588 -0.00013565 -5.81356e-005
                            CHANNELS 3 Zrotation Xrotation Yrotation
                            End Site
                            {
                              OFFSET 0 0 0
                            }
                          }
                        }
                      }
                    }
                    JOINT LeftHandRing1
                    {
                      OFFSET 22.465 -1.97467 6.3466
                      CHANNELS 3 Zrotation Xrotation Yrotation
                      JOINT LeftHandRing2
                      {
                        OFFSET 7.36666 -0.000232544 0.000387571
                        CHANNELS 3 Zrotation Xrotation Yrotation
                        JOINT LeftHandRing3
                        {
                          OFFSET 8.07624 -0.000465087 -0.000203475
                          CHANNELS 3 Zrotation Xrotation Yrotation
                          JOINT LeftHandRing4
                          {
                            OFFSET 6.04433 0.00013565 3.87571e-005
                            CHANNELS 3 Zrotation Xrotation Yrotation
                            End Site
                            {
                              OFFSET 0 0 0
                            }
                          }
                        }
                      }
                    }
                    JOINT LeftHandPinky1
                    {
                      OFFSET 19.5278 0.352933 10.4295
                      CHANNELS 3 Zrotation Xrotation Yrotation
                      JOINT LeftHandPinky2
                      {
                        OFFSET 6.16525 5.8136e-005 -0.000251921
                        CHANNELS 3 Zrotation Xrotation Yrotation
                        JOINT LeftHandPinky3
                        {
                          OFFSET 6.14448 -0.000329434 -0.00510625
                          CHANNELS 3 Zrotation Xrotation Yrotation
                          JOINT LeftHandPinky4
                          {
                            OFFSET 4.98555 0.000116272 0.000116271
                            CHANNELS 3 Zrotation Xrotation Yrotation
                            End Site
                            {
                              OFFSET 0 0 0
                            }
                          }
                        }
                      }
                    }
                  }
                }
              }
            }
            JOINT RightShoulder
            {
              OFFSET 20.1309 -6.74152 -12.6063
              CHANNELS 3 Zrotation Xrotation Yrotation
              JOINT RightArm
              {
                OFFSET 34.2171 7.75146e-005 7.75146e-005
                CHANNELS 3 Zrotation Xrotation Yrotation
                JOINT RightForeArm
                {
                  OFFSET 65.4492 0.242543 -0.176501
                  CHANNELS 3 Zrotation Xrotation Yrotation
                  JOINT RightHand
                  {
                    OFFSET 67.3888 -0.0867388 0.0597442
                    CHANNELS 3 Zrotation Xrotation Yrotation
                    JOINT RightHandThumb1
                    {
                      OFFSET 8.78307 -2.85357 -6.05302
                      CHANNELS 3 Zrotation Xrotation Yrotation
                      JOINT RightHandThumb2
                      {
                        OFFSET 8.25493 -7.75145e-005 0
                        CHANNELS 3 Zrotation Xrotation Yrotation
                        JOINT RightHandThumb3
                        {
                          OFFSET 7.24797 -0.000174408 0.000155029
                          CHANNELS 3 Zrotation Xrotation Yrotation
                          JOINT RightHandThumb4
                          {
                            OFFSET 7.00062 0 0
                            CHANNELS 3 Zrotation Xrotation Yrotation
                            End Site
                            {
                              OFFSET 0 0 0
                            }
                          }
                        }
                      }
                    }
                    JOINT RightHandIndex1
                    {
                      OFFSET 24.0991 1.01525 -5.40578
                      CHANNELS 3 Zrotation Xrotation Yrotation
                      JOINT RightHandIndex2
                      {
                        OFFSET 7.26773 7.75144e-005 0.000232543
                        CHANNELS 3 Zrotation Xrotation Yrotation
                        JOINT RightHandIndex3
                        {
                          OFFSET 7.13572 -0.000310058 3.87571e-005
                          CHANNELS 3 Zrotation Xrotation Yrotation
                          JOINT RightHandIndex4
                          {
                            OFFSET 5.46717 0 3.87572e-005
                            CHANNELS 3 Zrotation Xrotation Yrotation
                            End Site
                            {
                              OFFSET 0 0 0
                            }
                          }
                        }
                      }
                    }
                    JOINT RightHandMiddle1
                    {
                      OFFSET 24.4603 2.52899 0.918547
                      CHANNELS 3 Zrotation Xrotation Yrotation
                      JOINT RightHandMiddle2
                      {
                        OFFSET 7.41641 -0.000116272 -0.000116272
                        CHANNELS 3 Zrotation Xrotation Yrotation
                        JOINT RightHandMiddle3
                        {
                          OFFSET 8.76765 -3.87577e-005 0.000232543
                          CHANNELS 3 Zrotation Xrotation Yrotation
                          JOINT RightHandMiddle4
                          {
                            OFFSET 6.07609 -0.000193787 -0.000116271
                            CHANNELS 3 Zrotation Xrotation Yrotation
                            End Site
                            {
                              OFFSET 0 0 0
                            }
                          }
                        }
                      }
                    }
                    JOINT RightHandRing1
                    {
                      OFFSET 22.465 1.97571 6.34696
                      CHANNELS 3 Zrotation Xrotation Yrotation
                      JOINT RightHandRing2
                      {
                        OFFSET 7.36684 0.000193786 0.000155029
                        CHANNELS 3 Zrotation Xrotation Yrotation
                        JOINT RightHandRing3
                        {
                          OFFSET 8.07614 -0.000271301 0
                          CHANNELS 3 Zrotation Xrotation Yrotation
                          JOINT RightHandRing4
                          {
                            OFFSET 6.04468 0.000232543 0
                            CHANNELS 3 Zrotation Xrotation Yrotation
                            End Site
                            {
                              OFFSET 0 0 0
                            }
                          }
                        }
                      }
                    }
                    JOINT RightHandPinky1
                    {
                      OFFSET 19.5277 -0.352346 10.4296
                      CHANNELS 3 Zrotation Xrotation Yrotation
                      JOINT RightHandPinky2
                      {
                        OFFSET 6.16508 0 0.000232543
                        CHANNELS 3 Zrotation Xrotation Yrotation
                        JOINT RightHandPinky3
                        {
                          OFFSET 6.14396 -0.000155048 -0.0048834
                          CHANNELS 3 Zrotation Xrotation Yrotation
                          JOINT RightHandPinky4
                          {
                            OFFSET 4.98577 -7.75146e-005 -7.75143e-005
                            CHANNELS 3 Zrotation Xrotation Yrotation
                            End Site
                            {
                              OFFSET 0 0 0
                            }
                          }
                        }
                      }
                    }
                  }
                }
              }
            }
          }
        }
      }
    }
  }
}
MOTION
Frames:	4
Frame Time:	0.0333333
0 0 0 -90 -7.01671e-015 -180 -1.48918 -3.61992 -89.4338 155.681 -6.09731 -82.3238 -2.51947 -3.55808 -35.1356 -0.174307 -4.93413 61.7343 -0.571821 0.104752 57.7613 1.08158e-005 -6.59585e-005 -86.4974 -160.229 -4.4529 -77.0157 1.07299 1.44904 -36.3642 -1.64562 -6.11321 58.647 0.581534 -0.122617 56.7844 -3.41243e-006 -3.02444e-005 -86.4974 -1.36289e-005 4.80602e-005 121.665 -0.0307895 0.360223 -14.5349 1.49266 0.654236 -14.4864 -0.894437 2.28072 6.05231 -5.52914 1.07916 18.0687 -1.69072 -1.17086 39.5311 104.166 23.2085 -35.4006 57.8543 29.3075 9.33026 16.9047 77.4353 58.641 -15.4924 15.1903 13.538 -156.123 -1.29644 165.437 0.000378562 -4.65081e-005 15.9179 0.000263156 -7.99103e-006 17.0798 0.000201915 -0.00138311 -0.000156238 113.491 82.1668 -75.6262 -0.000286279 -0.00033864 25.1429 0.001311 -0.000547271 23.7877 -0.00057502 -0.000520802 -0.00046531 36.9332 89.9994 8.64943 0.00020632 -0.000353659 32.8604 0.00115618 -0.000476449 29.0793 -0.000542145 -0.000288574 0.000122941 -54.9775 87.2294 104.352 0.000454968 -0.00077161 36.6517 0.00176167 -7.18855e-005 32.8707 -0.000651427 -0.000660822 0.000693258 -55.054 84.2156 104.427 0.00147039 -0.000988971 36.6517 0.000385616 5.05742e-005 32.8707 -0.00640591 0.00467264 0.000693941 -101.327 -22.8797 -37.8836 -57.8034 -23.5143 -2.81833 -17.4055 -77.303 58.9713 10.7942 -29.1545 -8.45407 163.084 -0.517378 165.389 -9.04716e-005 0.000115182 15.9179 0.000118554 0.000175745 17.0798 3.05176e-005 1.52588e-005 -180 -113.49 -82.1668 -93.2677 -0.000231288 -0.000479906 7.50019 0.00019497 0.000176313 6.14498 -9.15528e-005 -1.52588e-005 -180 -81.3715 -89.9996 -58.8674 -1.50401e-005 0.000113254 9.7819 5.91461e-005 0.000288966 6.0008 -1.52588e-005 1.52588e-005 -180 54.9776 -87.2302 77.119 -3.11853e-005 -0.000235953 9.41914 0.000144904 0.000679078 5.63809 1.52588e-005 -4.57763e-005 -180 54.9976 -84.211 77.139 9.39982e-005 0.000458294 9.41914 5.9111e-005 0.000232298 5.6381 -4.07067e-012 1.52588e-005 -180 
0 0 0 -90 -7.01671e-015 -180 -1.0452 -3.40488 -91.5583 155.873 -4.76114 -84.7946 -2.54638 -3.76564 -33.9185 -0.0577572 -5.02799 61.2062 -0.569837 0.104388 57.7964 1.06653e-005 -6.9042e-005 -86.4974 -160.251 -4.78657 -79.5273 1.08265 1.49083 -35.8405 -1.70697 -6.09642 58.4458 0.581535 -0.122617 56.7844 -3.37005e-006 -3.03397e-005 -86.4974 0.0271383 -0.101262 121.754 -0.189775 0.480254 -14.1079 1.30456 0.738823 -14.0623 -1.11318 2.30758 6.47548 -4.83682 0.389197 19.3263 -1.23375 -2.09502 40.694 104.166 23.2085 -35.4006 57.6019 30.4698 11.4606 17.0453 77.5511 58.5147 -15.3098 12.6585 12.2911 -156.123 -1.29644 165.437 0.000378515 -4.88868e-005 15.9179 0.000262889 -1.17168e-005 17.0798 0.000201915 -0.00138311 -0.000156238 113.491 82.1668 -75.6261 -0.000287127 -0.000339181 25.1429 0.00131136 -0.000554905 23.7877 -0.000575019 -0.000611446 -0.000465311 36.6531 89.9994 8.92958 0.000206078 -0.000359921 32.8604 0.00115929 -0.000483241 29.0793 -0.000539586 -0.000290282 2.57711e-006 -54.9775 87.2294 104.352 0.000455347 -0.000776589 36.6517 0.00176473 -7.8979e-005 32.8707 -0.000651427 -0.000737185 0.000693257 -55.051 84.2153 104.424 0.00147056 -0.000997427 36.6517 0.000853043 0.000350286 32.8705 -0.00670218 0.00419151 0.00102028 -101.289 -22.9071 -37.8616 -57.2876 -24.2167 -0.912678 -16.9896 -77.6901 60.146 10.5215 -26.4001 -9.95795 163.084 -0.517378 165.389 -9.04814e-005 0.000109545 15.9179 0.000118288 0.000176022 17.0798 3.05176e-005 -7.01671e-015 -180 -113.49 -82.1668 -93.2677 -0.000231175 -0.000483179 7.50019 0.000194999 0.000176483 6.14498 -9.15534e-005 -1.52588e-005 179.998 -81.3435 -89.9996 -58.8394 -1.37508e-005 0.000113654 9.7819 5.93121e-005 0.000289168 6.0008 -1.52582e-005 1.52588e-005 179.998 54.9776 -87.2302 77.119 -3.13476e-005 -0.000239241 9.41914 0.000144987 0.000674413 5.63809 1.5257e-005 -4.57763e-005 179.998 54.9976 -84.211 77.139 9.41982e-005 0.000455055 9.41914 5.91785e-005 0.000232453 5.6381 -0.000152588 -0.000183105 -180 
0 0 0 -90 -7.01671e-015 -180 -0.358098 -3.37985 -94.3456 156.186 -2.95964 -87.9837 -2.71488 -4.2491 -32.4634 0.439938 -5.23861 60.6538 -0.564604 0.103441 57.8888 1.03533e-005 -7.19221e-005 -86.4974 -160.274 -5.2271 -82.8175 1.00071 1.40096 -35.3878 -1.74967 -6.18362 58.3921 0.581536 -0.122621 56.7844 -3.31127e-006 -3.24442e-005 -86.4974 0.106828 -0.363626 121.985 -0.384372 0.575139 -13.5793 1.08814 0.788314 -13.5358 -1.35252 2.28923 7.00041 -3.73589 -0.93795 20.926 -0.606006 -3.79756 42.0464 104.166 23.2085 -35.4005 57.6032 31.5952 13.6427 17.588 77.8244 57.8285 -15.3668 9.6605 10.9696 -156.123 -1.29642 165.437 0.000378571 -4.87958e-005 15.9179 0.000262969 -1.60634e-005 17.0798 0.000201914 -0.00138311 -0.000156238 113.491 82.1668 -75.6261 -0.000289165 -0.000343388 25.1429 0.00131193 -0.000565309 23.7877 -0.000606182 -0.00060447 -0.000308642 36.3124 89.9994 9.27022 0.000205212 -0.000371735 32.8604 0.0011633 -0.00049226 29.0793 -0.000539588 -0.000292843 -0.000116116 -54.9775 87.2294 104.352 0.00045628 -0.000782034 36.6517 0.00176861 -8.83878e-005 32.8707 -0.000642037 -0.000660396 0.000545346 -55.0482 84.215 104.421 0.0014711 -0.00100648 36.6517 0.0013212 0.000643477 32.8702 -0.00699845 0.00371253 0.00134598 -101.27 -22.9206 -37.8519 -56.2107 -24.7768 1.56304 -16.7282 -78.5353 61.4952 10.1466 -23.1157 -11.7171 163.084 -0.517378 165.389 -9.07894e-005 9.8439e-005 15.9178 0.000117944 0.000176294 17.0798 3.05176e-005 -7.01671e-015 -180 -113.49 -82.1668 -93.2678 -0.000230999 -0.00048547 7.50019 0.000195139 0.00017423 6.14498 -9.15539e-005 -1.52588e-005 179.996 -81.2988 -89.9996 -58.7946 -1.33786e-005 0.000110448 9.78189 5.94682e-005 0.000289358 6.0008 -1.52576e-005 1.52588e-005 179.995 54.9777 -87.2302 77.119 -3.06919e-005 -0.000243838 9.41914 0.000145117 0.000668184 5.63809 1.52552e-005 -4.57763e-005 179.995 54.9977 -84.211 77.1391 9.45667e-005 0.000451814 9.41914 5.93446e-005 0.000228428 5.6381 -0.000289917 -0.000381469 -180 
0 0 0 -90 -7.01671e-015 -180 0.479619 -3.55476 -97.509 156.673 -0.92678 -91.6305 -2.94939 -4.92701 -30.8344 1.22089 -5.52449 60.0865 -0.557205 0.102132 58.0196 9.91394e-006 -7.85044e-005 -86.4974 -160.29 -5.75992 -86.5842 0.831864 1.1822 -34.9633 -1.76703 -6.37012 58.4416 0.581538 -0.122625 56.7844 -3.13999e-006 -3.6289e-005 -86.4974 0.224892 -0.732172 122.311 -0.59315 0.64148 -13.0057 0.864848 0.804756 -12.9637 -1.59095 2.23405 7.56996 -2.29653 -2.69589 22.7661 0.163297 -6.06172 43.5321 104.166 23.2085 -35.4005 57.7775 32.7017 15.7789 18.4377 78.2072 56.739 -15.6799 6.38244 9.61752 -156.123 -1.29639 165.437 0.000378755 -4.86482e-005 15.9179 0.000263344 -2.24496e-005 17.0798 0.000201914 -0.00138311 -0.000156238 113.491 82.1668 -75.6259 -0.000292183 -0.000347619 25.1429 0.00131247 -0.000578577 23.7877 -0.000606182 -0.000694664 -0.000308643 35.9254 89.9994 9.65719 0.000202871 -0.000396186 32.8604 0.00116797 -0.000503388 29.0793 -0.000541295 -0.000291989 -0.000235629 -54.9771 87.2294 104.351 0.000456492 -0.000792573 36.6517 0.00177328 -0.000102019 32.8707 -0.000642037 -0.00073463 0.000545345 -55.0454 84.2148 104.418 0.0014717 -0.00102008 36.6518 0.00179163 0.000936224 32.8701 -0.00729471 0.00323183 0.00167252 -101.266 -22.9236 -37.8507 -54.7175 -25.1882 4.41191 -16.5663 -79.7088 62.9769 9.80766 -19.5072 -13.5256 163.084 -0.517378 165.389 -9.19406e-005 7.72039e-005 15.9179 0.000117992 0.000174221 17.0798 3.05176e-005 -1.52588e-005 -180 -113.49 -82.1668 -93.268 -0.000230714 -0.000493011 7.50019 0.000195327 0.000170169 6.14498 -9.15544e-005 -1.52588e-005 179.994 -81.2379 -89.9996 -58.7338 -1.231e-005 0.000107305 9.7819 5.95867e-005 0.00028709 6.0008 -1.5257e-005 1.52588e-005 179.993 54.9776 -87.2302 77.119 -3.0656e-005 -0.000250588 9.41914 0.000145383 0.000656252 5.63809 1.52534e-005 -4.57763e-005 179.993 54.9978 -84.211 77.1392 9.50105e-005 0.00044471 9.41915 5.96925e-005 0.000223745 5.63811 -0.000427246 -0.000579833 -180 
